<svg width="24" height="24" viewBox="0 0 24 24" fill="none" xmlns="http://www.w3.org/2000/svg">
<path d="M20.25 4.5H3.75001C3.35218 4.5 2.97065 4.65804 2.68935 4.93934C2.40804 5.22064 2.25001 5.60218 2.25001 6V20.8875C2.24622 21.1734 2.32576 21.4542 2.47893 21.6956C2.6321 21.937 2.85225 22.1285 3.11251 22.2469C3.31036 22.346 3.5287 22.3974 3.75001 22.3969C4.10382 22.3957 4.44585 22.2695 4.71563 22.0406L7.73438 19.5H20.25C20.6478 19.5 21.0294 19.342 21.3107 19.0607C21.592 18.7794 21.75 18.3978 21.75 18V6C21.75 5.60218 21.592 5.22064 21.3107 4.93934C21.0294 4.65804 20.6478 4.5 20.25 4.5ZM20.25 18H7.73438C7.37997 17.9978 7.03683 18.1244 6.76876 18.3563L3.75001 20.8875V6H20.25V18ZM10.875 12C10.875 11.7775 10.941 11.56 11.0646 11.375C11.1882 11.19 11.3639 11.0458 11.5695 10.9606C11.7751 10.8755 12.0013 10.8532 12.2195 10.8966C12.4377 10.94 12.6382 11.0472 12.7955 11.2045C12.9528 11.3618 13.06 11.5623 13.1034 11.7805C13.1468 11.9988 13.1245 12.225 13.0394 12.4305C12.9542 12.6361 12.81 12.8118 12.625 12.9354C12.44 13.059 12.2225 13.125 12 13.125C11.7016 13.125 11.4155 13.0065 11.2045 12.7955C10.9935 12.5845 10.875 12.2984 10.875 12ZM6.37501 12C6.37501 11.7775 6.44099 11.56 6.5646 11.375C6.68822 11.19 6.86392 11.0458 7.06949 10.9606C7.27506 10.8755 7.50126 10.8532 7.71948 10.8966C7.93771 10.94 8.13817 11.0472 8.2955 11.2045C8.45284 11.3618 8.55998 11.5623 8.60339 11.7805C8.6468 11.9988 8.62452 12.225 8.53937 12.4305C8.45422 12.6361 8.31003 12.8118 8.12502 12.9354C7.94002 13.059 7.72251 13.125 7.50001 13.125C7.20164 13.125 6.91549 13.0065 6.70451 12.7955C6.49353 12.5845 6.37501 12.2984 6.37501 12ZM15.375 12C15.375 11.7775 15.441 11.56 15.5646 11.375C15.6882 11.19 15.8639 11.0458 16.0695 10.9606C16.2751 10.8755 16.5013 10.8532 16.7195 10.8966C16.9377 10.94 17.1382 11.0472 17.2955 11.2045C17.4528 11.3618 17.56 11.5623 17.6034 11.7805C17.6468 11.9988 17.6245 12.225 17.5394 12.4305C17.4542 12.6361 17.31 12.8118 17.125 12.9354C16.94 13.059 16.7225 13.125 16.5 13.125C16.2016 13.125 15.9155 13.0065 15.7045 12.7955C15.4935 12.5845 15.375 12.2984 15.375 12Z" fill="white"/>
</svg>
