<svg width="71" height="20" viewBox="0 0 71 20" fill="none" xmlns="http://www.w3.org/2000/svg">
<path d="M0 19.3128V0.325496H4.31486V15.7323H13.6637V19.3128H0Z" fill="#B5FB02"/>
<path d="M13.7542 19.3128L22.0643 0.325496H26.3259L34.6627 19.3128H30.1347L23.3162 2.54972H25.0208L18.1756 19.3128H13.7542ZM17.9093 15.2441L19.0546 11.9078H28.6432L29.8151 15.2441H17.9093Z" fill="#B5FB02"/>
<path d="M36.597 19.3128V0.325496H45.7062C48.05 0.325496 49.808 0.777574 50.9799 1.68173C52.1696 2.58589 52.7644 3.77938 52.7644 5.2622C52.7644 6.25677 52.5247 7.12476 52.0453 7.86617C51.5659 8.58949 50.9089 9.15007 50.0743 9.5479C49.2397 9.94573 48.2809 10.1446 47.1977 10.1446L47.7038 9.03253C48.8757 9.03253 49.9145 9.23145 50.8201 9.62928C51.7257 10.009 52.4271 10.5786 52.9242 11.3381C53.4392 12.0976 53.6967 13.0289 53.6967 14.132C53.6967 15.7595 53.0663 17.0343 51.8056 17.9566C50.5449 18.8607 48.6893 19.3128 46.2389 19.3128H36.597ZM40.8852 16.0036H45.9193C47.0379 16.0036 47.8814 15.8228 48.4496 15.4611C49.0355 15.0813 49.3285 14.4846 49.3285 13.6709C49.3285 12.8752 49.0355 12.2875 48.4496 11.9078C47.8814 11.5099 47.0379 11.311 45.9193 11.311H40.5656V8.11029H45.1735C46.2211 8.11029 47.0202 7.92946 47.5706 7.5678C48.1388 7.18805 48.4229 6.61843 48.4229 5.85894C48.4229 5.11753 48.1388 4.56599 47.5706 4.20433C47.0202 3.82459 46.2211 3.63471 45.1735 3.63471H40.8852V16.0036Z" fill="#B5FB02"/>
<path d="M63.0894 19.6383C61.5979 19.6383 60.1685 19.4394 58.8012 19.0416C57.4339 18.6256 56.333 18.0922 55.4985 17.4412L56.9634 14.132C57.7624 14.7106 58.7035 15.1898 59.7867 15.5696C60.8876 15.9313 61.9974 16.1121 63.1161 16.1121C63.9684 16.1121 64.652 16.0307 65.1669 15.868C65.6997 15.6871 66.0903 15.443 66.3389 15.1356C66.5875 14.8282 66.7118 14.4756 66.7118 14.0777C66.7118 13.5714 66.5165 13.1736 66.1258 12.8842C65.7352 12.5768 65.2202 12.3327 64.581 12.1519C63.9417 11.953 63.2315 11.7721 62.4502 11.6094C61.6866 11.4285 60.9142 11.2116 60.1329 10.9584C59.3694 10.7052 58.668 10.3797 58.0288 9.9819C57.3895 9.58407 56.8657 9.05966 56.4573 8.40866C56.0667 7.75767 55.8714 6.92585 55.8714 5.91319C55.8714 4.8282 56.1555 3.84267 56.7237 2.95659C57.3096 2.05244 58.1797 1.33815 59.3339 0.813741C60.5058 0.271247 61.9708 0 63.7287 0C64.9006 0 66.0548 0.144665 67.1912 0.433995C68.3276 0.705242 69.3309 1.12115 70.2009 1.68173L68.8692 5.01807C67.9991 4.51175 67.1291 4.14104 66.259 3.90596C65.3889 3.6528 64.5366 3.52621 63.702 3.52621C62.8675 3.52621 62.1838 3.62567 61.6511 3.82458C61.1184 4.0235 60.7367 4.28571 60.5058 4.6112C60.275 4.91862 60.1596 5.28028 60.1596 5.69619C60.1596 6.18444 60.3549 6.58226 60.7455 6.88968C61.1362 7.17901 61.6511 7.41409 62.2904 7.59492C62.9296 7.77575 63.631 7.95658 64.3945 8.13742C65.1758 8.31825 65.9482 8.5262 66.7118 8.76128C67.4931 8.99636 68.2033 9.31282 68.8426 9.71065C69.4818 10.1085 69.9967 10.6329 70.3874 11.2839C70.7958 11.9349 71 12.7577 71 13.7522C71 14.8191 70.707 15.7956 70.121 16.6817C69.5351 17.5678 68.6561 18.2821 67.4842 18.8246C66.33 19.3671 64.8651 19.6383 63.0894 19.6383Z" fill="#B5FB02"/>
</svg>
