<svg width="60" height="211" viewBox="0 0 60 211" fill="none" xmlns="http://www.w3.org/2000/svg">
<rect y="179.831" width="33.1518" height="31.1688" rx="2" fill="#F4F5FB"/>
<path d="M52.5724 1.92219C50.9443 1.92219 49.487 2.46786 48.5784 3.30495C47.6699 2.46786 46.2126 1.92219 44.5844 1.92219C41.8228 1.92219 39.5829 3.47237 39.5829 5.38839C39.5829 6.12627 39.7538 6.80835 40.0507 7.44082C41.472 10.5412 45.8528 12.3952 48.0207 12.9036C48.3266 12.978 48.8303 12.978 49.1362 12.9036C51.3041 12.3952 55.6849 10.5412 57.1062 7.44082C57.403 6.80835 57.574 6.12627 57.574 5.38839C57.574 3.47237 55.3341 1.92219 52.5724 1.92219Z" fill="#F62525"/>
</svg>
