<svg width="210" height="210" viewBox="0 0 210 210" fill="none" xmlns="http://www.w3.org/2000/svg">
<g filter="url(#filter0_d_142_2499)">
<circle cx="105" cy="101" r="25" fill="white"/>
</g>
<path d="M105 110C109.971 110 114 105.971 114 101C114 96.0294 109.971 92 105 92C100.029 92 96 96.0294 96 101C96 105.971 100.029 110 105 110Z" fill="#15161E" stroke="#15161E" stroke-width="1.5" stroke-linecap="round" stroke-linejoin="round"/>
<path d="M105 107C105.621 107 106.125 106.496 106.125 105.875C106.125 105.254 105.621 104.75 105 104.75C104.379 104.75 103.875 105.254 103.875 105.875C103.875 106.496 104.379 107 105 107Z" fill="white"/>
<path d="M105 103.25C105 103.664 105.336 104 105.75 104C106.164 104 106.5 103.664 106.5 103.25H105ZM105.75 102.5V101.75C105.551 101.75 105.36 101.829 105.22 101.97C105.079 102.11 105 102.301 105 102.5H105.75ZM102.375 99.875C102.375 100.289 102.711 100.625 103.125 100.625C103.539 100.625 103.875 100.289 103.875 99.875H102.375ZM106.5 103.25V102.5H105V103.25H106.5ZM105.75 103.25C106.418 103.25 107.07 103.052 107.625 102.681L106.792 101.434C106.483 101.64 106.121 101.75 105.75 101.75V103.25ZM107.625 102.681C108.18 102.31 108.613 101.783 108.868 101.167L107.482 100.593C107.34 100.935 107.1 101.228 106.792 101.434L107.625 102.681ZM108.868 101.167C109.124 100.55 109.19 99.8713 109.06 99.2166L107.589 99.5092C107.661 99.8729 107.624 100.25 107.482 100.593L108.868 101.167ZM109.06 99.2166C108.93 98.5619 108.608 97.9605 108.136 97.4885L107.076 98.5492C107.338 98.8114 107.517 99.1455 107.589 99.5092L109.06 99.2166ZM108.136 97.4885C107.664 97.0165 107.063 96.6951 106.408 96.5649L106.116 98.036C106.48 98.1084 106.814 98.287 107.076 98.5492L108.136 97.4885ZM106.408 96.5649C105.754 96.4346 105.075 96.5015 104.458 96.7569L105.032 98.1427C105.375 98.0008 105.752 97.9637 106.116 98.036L106.408 96.5649ZM104.458 96.7569C103.842 97.0124 103.315 97.4449 102.944 98L104.191 98.8333C104.397 98.525 104.69 98.2846 105.032 98.1427L104.458 96.7569ZM102.944 98C102.573 98.555 102.375 99.2075 102.375 99.875H103.875C103.875 99.5042 103.985 99.1417 104.191 98.8333L102.944 98Z" fill="white"/>
<defs>
<filter id="filter0_d_142_2499" x="0" y="0" width="210" height="210" filterUnits="userSpaceOnUse" color-interpolation-filters="sRGB">
<feFlood flood-opacity="0" result="BackgroundImageFix"/>
<feColorMatrix in="SourceAlpha" type="matrix" values="0 0 0 0 0 0 0 0 0 0 0 0 0 0 0 0 0 0 127 0" result="hardAlpha"/>
<feOffset dy="4"/>
<feGaussianBlur stdDeviation="40"/>
<feComposite in2="hardAlpha" operator="out"/>
<feColorMatrix type="matrix" values="0 0 0 0 0.576471 0 0 0 0 0.596078 0 0 0 0 0.603922 0 0 0 0.25 0"/>
<feBlend mode="normal" in2="BackgroundImageFix" result="effect1_dropShadow_142_2499"/>
<feBlend mode="normal" in="SourceGraphic" in2="effect1_dropShadow_142_2499" result="shape"/>
</filter>
</defs>
</svg>
