<svg width="40" height="40" viewBox="0 0 40 40" fill="none" xmlns="http://www.w3.org/2000/svg">
<path fill-rule="evenodd" clip-rule="evenodd" d="M35.9716 10.6216C35.5899 8.94828 34.4599 7.62828 33.0233 7.17495C30.4249 6.36328 19.9999 6.36328 19.9999 6.36328C19.9999 6.36328 9.57992 6.36328 6.97659 7.17495C5.54492 7.62161 4.41492 8.94161 4.02825 10.6216C3.33325 13.6583 3.33325 19.9999 3.33325 19.9999C3.33325 19.9999 3.33325 26.3416 4.02825 29.3783C4.40992 31.0516 5.53992 32.3716 6.97659 32.8249C9.57992 33.6366 19.9999 33.6366 19.9999 33.6366C19.9999 33.6366 30.4249 33.6366 33.0233 32.8249C34.4549 32.3783 35.5849 31.0583 35.9716 29.3783C36.6666 26.3416 36.6666 19.9999 36.6666 19.9999C36.6666 19.9999 36.6666 13.6583 35.9716 10.6216Z" stroke="white" stroke-width="1.5" stroke-linecap="round" stroke-linejoin="round"/>
<path fill-rule="evenodd" clip-rule="evenodd" d="M16.6699 25L25.3299 20L16.6699 15V25Z" stroke="white" stroke-width="1.5" stroke-linecap="round" stroke-linejoin="round"/>
</svg>
