<svg width="18" height="18" viewBox="0 0 18 18" fill="none" xmlns="http://www.w3.org/2000/svg">
<path d="M2.81246 6.74999C2.81449 6.6009 2.87217 6.45795 2.97418 6.34921C3.08083 6.24358 3.22486 6.18433 3.37496 6.18433C3.52506 6.18433 3.6691 6.24358 3.77574 6.34921L8.99996 11.5805L14.2242 6.34921C14.3335 6.25951 14.4722 6.21367 14.6134 6.22061C14.7547 6.22754 14.8882 6.28676 14.9882 6.38673C15.0882 6.48671 15.1474 6.6203 15.1543 6.76152C15.1613 6.90273 15.1154 7.04148 15.0257 7.15077L9.40074 12.7758C9.2941 12.8814 9.15006 12.9407 8.99996 12.9407C8.84986 12.9407 8.70583 12.8814 8.59918 12.7758L2.97418 7.15077C2.87217 7.04203 2.81449 6.89908 2.81246 6.74999Z" fill="#E2E7E9"/>
</svg>
