<svg width="128" height="36" viewBox="0 0 128 36" fill="none" xmlns="http://www.w3.org/2000/svg">
<path d="M0 34.7731V0.586061H7.77891V28.3264H24.6332V34.7731H0Z" fill="#B5FB02"/>
<path d="M24.7964 34.7731L39.778 0.586061H47.4609L62.4905 34.7731H54.3274L42.0348 4.59083H45.108L32.7674 34.7731H24.7964ZM32.2872 27.4473L34.352 21.4401H51.6384L53.7512 27.4473H32.2872Z" fill="#B5FB02"/>
<path d="M65.9778 34.7731V0.586061H82.3999C86.6255 0.586061 89.7947 1.40004 91.9075 3.02799C94.0523 4.65594 95.1247 6.80484 95.1247 9.47468C95.1247 11.2654 94.6925 12.8283 93.8282 14.1632C92.9639 15.4655 91.7794 16.4749 90.2749 17.1912C88.7703 17.9075 87.0417 18.2656 85.0889 18.2656L86.0013 16.2632C88.1141 16.2632 89.9868 16.6214 91.6194 17.3377C93.252 18.0214 94.5165 19.047 95.4128 20.4145C96.3411 21.782 96.8053 23.4588 96.8053 25.4449C96.8053 28.3752 95.6689 30.6706 93.396 32.3311C91.1232 33.9591 87.7779 34.7731 83.3603 34.7731H65.9778ZM73.7087 28.8148H82.7841C84.8008 28.8148 86.3214 28.4892 87.3458 27.838C88.4022 27.1542 88.9304 26.0798 88.9304 24.6146C88.9304 23.182 88.4022 22.1239 87.3458 21.4401C86.3214 20.7238 84.8008 20.3657 82.7841 20.3657H73.1325V14.6027H81.4396C83.3283 14.6027 84.7688 14.2771 85.7612 13.626C86.7856 12.9422 87.2978 11.9166 87.2978 10.5491C87.2978 9.21421 86.7856 8.22116 85.7612 7.56998C84.7688 6.88624 83.3283 6.54437 81.4396 6.54437H73.7087V28.8148Z" fill="#B5FB02"/>
<path d="M113.739 35.3591C111.05 35.3591 108.473 35.001 106.008 34.2847C103.543 33.5358 101.558 32.5753 100.054 31.4032L102.695 25.4449C104.135 26.4868 105.832 27.3496 107.785 28.0333C109.769 28.6845 111.77 29.0101 113.787 29.0101C115.323 29.0101 116.556 28.8636 117.484 28.5706C118.445 28.245 119.149 27.8054 119.597 27.2519C120.045 26.6984 120.269 26.0635 120.269 25.3472C120.269 24.4356 119.917 23.7193 119.213 23.1983C118.509 22.6448 117.58 22.2053 116.428 21.8797C115.275 21.5215 113.995 21.1959 112.586 20.9029C111.21 20.5773 109.817 20.1866 108.409 19.7308C107.032 19.275 105.768 18.6889 104.615 17.9726C103.463 17.2563 102.519 16.3121 101.782 15.14C101.078 13.9678 100.726 12.4701 100.726 10.6468C100.726 8.69327 101.238 6.9188 102.262 5.3234C103.319 3.69545 104.887 2.40937 106.968 1.46516C109.081 0.488385 111.722 0 114.891 0C117.004 0 119.085 0.260472 121.134 0.781416C123.182 1.2698 124.991 2.01866 126.56 3.02799L124.159 9.03514C122.59 8.12348 121.021 7.45602 119.453 7.03275C117.884 6.57693 116.348 6.34901 114.843 6.34901C113.339 6.34901 112.106 6.52809 111.146 6.88624C110.185 7.24439 109.497 7.71649 109.081 8.30256C108.665 8.85606 108.457 9.50724 108.457 10.2561C108.457 11.1352 108.809 11.8515 109.513 12.405C110.217 12.9259 111.146 13.3492 112.298 13.6748C113.451 14.0004 114.715 14.326 116.092 14.6516C117.5 14.9772 118.893 15.3516 120.269 15.7749C121.678 16.1981 122.958 16.7679 124.111 17.4842C125.263 18.2005 126.191 19.1447 126.896 20.3168C127.632 21.489 128 22.9704 128 24.7612C128 26.6821 127.472 28.4403 126.416 30.0357C125.359 31.6311 123.775 32.9172 121.662 33.894C119.581 34.8707 116.94 35.3591 113.739 35.3591Z" fill="#B5FB02"/>
</svg>
