<svg width="27" height="29" viewBox="0 0 27 29" fill="none" xmlns="http://www.w3.org/2000/svg">
<path opacity="0.4" d="M14.5983 3.67445L17.1031 8.95464C17.2876 9.3372 17.6398 9.60286 18.046 9.6619L23.6723 10.5215C24.0008 10.5699 24.299 10.7517 24.5004 11.0292C24.6996 11.3031 24.7851 11.6502 24.7367 11.9915C24.6974 12.2748 24.5702 12.537 24.3755 12.7377L20.2988 16.8832C20.0006 17.1725 19.8656 17.6011 19.9376 18.0202L20.9413 23.8483C21.0482 24.552 20.6037 25.2156 19.9376 25.349C19.663 25.395 19.3817 25.3466 19.1341 25.2144L14.1156 22.4716C13.7431 22.2744 13.3031 22.2744 12.9307 22.4716L7.91209 25.2144C7.29545 25.558 6.53141 25.3242 6.18821 24.6866C6.06106 24.4328 6.01605 24.1435 6.05768 23.8613L7.0614 18.032C7.13342 17.6141 6.99726 17.1831 6.7002 16.8938L2.62344 12.7507C2.13846 12.2595 2.12383 11.4507 2.59081 10.9418C2.60093 10.9312 2.61219 10.9194 2.62344 10.9076C2.81698 10.7009 3.07128 10.5699 3.34584 10.5356L8.97207 9.67489C9.37715 9.61467 9.72936 9.35137 9.91502 8.96645L12.3298 3.67445C12.5447 3.22105 12.9903 2.93886 13.4742 2.95066H13.625C14.0447 3.0038 14.4104 3.27654 14.5983 3.67445Z" fill="white"/>
<path d="M13.491 22.3245C13.273 22.3316 13.0607 22.393 12.8698 22.5029L7.87574 25.2395C7.26468 25.5454 6.53344 25.308 6.19084 24.695C6.06391 24.4446 6.01786 24.1576 6.06054 23.8765L7.058 18.0596C7.1254 17.6368 6.99061 17.2069 6.69743 16.9092L2.61885 12.7671C2.13472 12.2699 2.12573 11.4538 2.59975 10.9447C2.60649 10.9376 2.61211 10.9317 2.61885 10.9258C2.81205 10.725 3.06142 10.5927 3.32988 10.5514L8.96082 9.68213C9.36857 9.62779 9.7224 9.36087 9.90212 8.97347L12.3497 3.61486C12.5822 3.18258 13.0282 2.9251 13.4999 2.95226C13.491 3.30305 13.491 22.0859 13.491 22.3245Z" fill="white"/>
</svg>
