<svg width="59" height="58" viewBox="0 0 59 58" fill="none" xmlns="http://www.w3.org/2000/svg">
<path d="M46.5489 9.0625H11.525C10.1713 9.0625 9.07397 10.1585 9.07397 11.5104V46.4896C9.07397 47.8415 10.1713 48.9375 11.525 48.9375H46.5489C47.9025 48.9375 48.9999 47.8415 48.9999 46.4896V11.5104C48.9999 10.1585 47.9025 9.0625 46.5489 9.0625Z" fill="#B5FB02"/>
<path fill-rule="evenodd" clip-rule="evenodd" d="M11.5251 10.875C11.1737 10.875 10.8889 11.1595 10.8889 11.5104V46.4896C10.8889 46.8405 11.1737 47.125 11.5251 47.125H46.549C46.9004 47.125 47.1852 46.8405 47.1852 46.4896V11.5104C47.1852 11.1595 46.9004 10.875 46.549 10.875H11.5251ZM7.25928 11.5104C7.25928 9.15744 9.16915 7.25 11.5251 7.25H46.549C48.905 7.25 50.8148 9.15744 50.8148 11.5104V46.4896C50.8148 48.8426 48.905 50.75 46.549 50.75H11.5251C9.16915 50.75 7.25928 48.8426 7.25928 46.4896V11.5104Z" fill="white"/>
<path fill-rule="evenodd" clip-rule="evenodd" d="M7.25928 29.022C7.25928 28.021 8.0718 27.2095 9.07409 27.2095H48.9557C49.958 27.2095 50.7705 28.021 50.7705 29.022C50.7705 30.023 49.958 30.8345 48.9557 30.8345H9.07409C8.0718 30.8345 7.25928 30.023 7.25928 29.022Z" fill="white"/>
<path fill-rule="evenodd" clip-rule="evenodd" d="M32.9855 27.1875C33.9878 27.1875 34.8003 27.999 34.8003 29V48.9375C34.8003 49.9385 33.9878 50.75 32.9855 50.75C31.9832 50.75 31.1707 49.9385 31.1707 48.9375V29C31.1707 27.999 31.9832 27.1875 32.9855 27.1875Z" fill="white"/>
<path fill-rule="evenodd" clip-rule="evenodd" d="M23.0038 7.29443C24.0061 7.29443 24.8186 8.10592 24.8186 9.10693V29.0223C24.8186 30.0233 24.0061 30.8348 23.0038 30.8348C22.0015 30.8348 21.189 30.0233 21.189 29.0223V9.10693C21.189 8.10592 22.0015 7.29443 23.0038 7.29443Z" fill="white"/>
</svg>
