<svg width="23" height="24" viewBox="0 0 23 24" fill="none" xmlns="http://www.w3.org/2000/svg">
<path d="M13.0347 20H9.96802" stroke="white" stroke-width="1.5" stroke-linecap="round" stroke-linejoin="round"/>
<path d="M16.293 10.032V10C16.293 8.67392 15.7882 7.40215 14.8896 6.46447C13.991 5.52678 12.7722 5 11.5014 5C10.2305 5 9.01175 5.52678 8.11314 6.46447C7.21453 7.40215 6.70969 8.67392 6.70969 10V12.504C6.70962 12.6626 6.66727 12.818 6.58739 12.953C6.50751 13.0879 6.39324 13.197 6.25736 13.268L5.77532 13.519C5.41695 13.7056 5.12949 14.013 4.95958 14.3914C4.78967 14.7698 4.74726 15.1971 4.83925 15.6038C4.93123 16.0105 5.1522 16.3729 5.46632 16.6322C5.78044 16.8914 6.16929 17.0323 6.56978 17.032H16.4329C16.6727 17.1572 16.9365 17.2241 17.2045 17.2278C17.4726 17.2315 17.738 17.1719 17.9808 17.0534C18.2237 16.9348 18.4376 16.7605 18.6067 16.5434C18.7759 16.3264 18.8957 16.0722 18.9573 15.7999C19.0189 15.5277 19.0206 15.2444 18.9624 14.9713C18.9042 14.6983 18.7875 14.4425 18.6211 14.2232C18.4546 14.0038 18.2428 13.8267 18.0015 13.7049C17.7601 13.5831 17.4955 13.5199 17.2274 13.52L16.7454 13.269C16.6095 13.1977 16.4952 13.0884 16.4154 12.9533C16.3355 12.8183 16.2931 12.6627 16.293 12.504V10.032V10.032Z" stroke="white" stroke-width="1.5" stroke-linecap="round" stroke-linejoin="round"/>
</svg>
