<svg width="24" height="24" viewBox="0 0 24 24" fill="none" xmlns="http://www.w3.org/2000/svg">
<path d="M11.655 12.394L7.65503 8.39404" stroke="#FFC400" stroke-width="1.5" stroke-linecap="round" stroke-linejoin="round"/>
<path d="M11.394 4.65405L15.394 8.65405" stroke="#FFC400" stroke-width="1.5" stroke-linecap="round" stroke-linejoin="round"/>
<path d="M3 21H13.586" stroke="#FFC400" stroke-width="1.5" stroke-linecap="round" stroke-linejoin="round"/>
<path d="M3.8999 21L4.4449 19.368C4.57733 18.9704 4.83131 18.6244 5.17097 18.379C5.51064 18.1335 5.91883 18.0009 6.3379 18H10.2479C10.6682 17.9995 11.0779 18.1314 11.419 18.3769C11.7601 18.6225 12.0151 18.9693 12.1479 19.368L12.6889 21" stroke="#FFC400" stroke-width="1.5" stroke-linecap="round" stroke-linejoin="round"/>
<path d="M8.89206 7.30012L6.69206 9.05512C6.49092 9.21598 6.3259 9.41738 6.20773 9.64622C6.08956 9.87505 6.02089 10.1262 6.00617 10.3833C5.99146 10.6405 6.03103 10.8978 6.12233 11.1386C6.21362 11.3795 6.35459 11.5984 6.53606 11.7811L8.21206 13.4651C8.39202 13.646 8.60813 13.7869 8.84627 13.8786C9.0844 13.9703 9.3392 14.0107 9.59403 13.9972C9.84885 13.9837 10.098 13.9166 10.3251 13.8003C10.5522 13.684 10.7522 13.521 10.9121 13.3221L12.6881 11.1161C13.1083 10.5937 13.5844 10.1188 14.1081 9.70012L16.3081 7.94512C16.5092 7.78426 16.6742 7.58286 16.7924 7.35402C16.9105 7.12518 16.9792 6.87403 16.9939 6.61691C17.0087 6.35978 16.9691 6.10243 16.8778 5.86161C16.7865 5.62078 16.6455 5.40188 16.4641 5.21912L14.7911 3.53612C14.6111 3.35521 14.395 3.21431 14.1568 3.12262C13.9187 3.03093 13.6639 2.99051 13.4091 3.004C13.1543 3.0175 12.9052 3.08461 12.678 3.20094C12.4509 3.31727 12.2509 3.48021 12.0911 3.67912L10.3131 5.88512C9.89275 6.40751 9.41622 6.88203 8.89206 7.30012V7.30012Z" stroke="#FFC400" stroke-width="1.5" stroke-linecap="round" stroke-linejoin="round"/>
<path d="M14.376 9.48706L20.3 14.5001C20.5069 14.6758 20.6755 14.8922 20.7955 15.1357C20.9155 15.3792 20.9843 15.6447 20.9976 15.9158C21.011 16.187 20.9686 16.458 20.8731 16.7121C20.7776 16.9662 20.631 17.198 20.4424 17.3933C20.2538 17.5885 20.0272 17.743 19.7765 17.8473C19.5259 17.9515 19.2565 18.0032 18.9851 17.9993C18.7136 17.9953 18.4459 17.9358 18.1984 17.8243C17.9509 17.7128 17.7288 17.5517 17.546 17.3511L12.312 11.5871" stroke="#FFC400" stroke-width="1.5" stroke-linecap="round" stroke-linejoin="round"/>
</svg>
