<svg width="120" height="1024" viewBox="0 0 120 1024" fill="none" xmlns="http://www.w3.org/2000/svg">
<g filter="url(#filter0_d_140_2152)">
<rect width="120" height="1024" fill="#121517"/>
</g>
<path d="M72 325.437V337C71.9991 337.361 71.9012 337.715 71.7165 338.025C71.5317 338.335 71.267 338.59 70.95 338.762C70.6593 338.923 70.3319 339.005 70 339H64C63.7348 339 63.4805 338.895 63.2929 338.707C63.1054 338.52 63 338.265 63 338V332C63 331.735 62.8947 331.48 62.7071 331.293C62.5196 331.105 62.2652 331 62 331H58C57.7348 331 57.4805 331.105 57.2929 331.293C57.1054 331.48 57 331.735 57 332V338C57 338.265 56.8947 338.52 56.7071 338.707C56.5196 338.895 56.2652 339 56 339H50C49.7163 339.001 49.4356 338.941 49.1769 338.825C48.9182 338.709 48.6874 338.538 48.5 338.325C48.1749 337.941 47.9976 337.453 48 336.95V325.437C48.0001 325.16 48.0579 324.886 48.1699 324.632C48.2818 324.378 48.4453 324.15 48.65 323.962L58.65 314.875C59.0187 314.538 59.5003 314.351 60 314.351C60.4997 314.351 60.9813 314.538 61.35 314.875L71.35 323.962C71.5548 324.15 71.7183 324.378 71.8302 324.632C71.9421 324.886 71.9999 325.16 72 325.437Z" fill="#00B3D6"/>
<rect x="32.5" y="299.5" width="55" height="55" rx="27.5" stroke="#00B3D6"/>
<path d="M72.9875 423.5C71.1216 420.286 68.1349 417.873 64.6 416.725C66.2944 415.717 67.6111 414.181 68.3478 412.353C69.0846 410.525 69.2006 408.505 68.6782 406.604C68.1557 404.703 67.0236 403.027 65.4559 401.832C63.8881 400.637 61.9713 399.989 60 399.989C58.0287 399.989 56.112 400.637 54.5442 401.832C52.9764 403.027 51.8443 404.703 51.3219 406.604C50.7994 408.505 50.9155 410.525 51.6522 412.353C52.389 414.181 53.7057 415.717 55.4 416.725C51.8651 417.873 48.8784 420.286 47.0125 423.5C46.9343 423.614 46.8803 423.742 46.8541 423.877C46.8279 424.013 46.83 424.152 46.8602 424.287C46.8904 424.421 46.9481 424.548 47.0297 424.659C47.1113 424.77 47.215 424.864 47.3343 424.933C47.4536 425.002 47.586 425.046 47.723 425.061C47.86 425.077 47.9988 425.064 48.1305 425.023C48.2623 424.982 48.3843 424.915 48.4887 424.825C48.5932 424.735 48.6779 424.624 48.7375 424.5C49.8805 422.525 51.5228 420.885 53.4995 419.745C55.4763 418.605 57.7181 418.005 60 418.005C62.2819 418.005 64.5237 418.605 66.5005 419.745C68.4773 420.885 70.1196 422.525 71.2625 424.5C71.3222 424.624 71.4069 424.735 71.5113 424.825C71.6158 424.915 71.7377 424.982 71.8695 425.023C72.0013 425.064 72.1401 425.077 72.2771 425.061C72.4141 425.046 72.5464 425.002 72.6657 424.933C72.785 424.864 72.8887 424.77 72.9703 424.659C73.0519 424.548 73.1096 424.421 73.1399 424.287C73.1701 424.152 73.1722 424.013 73.1459 423.877C73.1197 423.742 73.0658 423.614 72.9875 423.5ZM53 409C53 407.616 53.4106 406.262 54.1797 405.111C54.9489 403.96 56.0422 403.063 57.3212 402.533C58.6003 402.003 60.0078 401.864 61.3657 402.134C62.7235 402.405 63.9708 403.071 64.9498 404.05C65.9287 405.029 66.5954 406.276 66.8655 407.634C67.1356 408.992 66.997 410.4 66.4672 411.679C65.9374 412.958 65.0402 414.051 63.889 414.82C62.7379 415.589 61.3845 416 60 416C58.1435 416 56.363 415.262 55.0503 413.95C53.7375 412.637 53 410.857 53 409Z" fill="#7E839A"/>
<path d="M60.0125 474C57.4414 474 54.9279 474.762 52.7901 476.191C50.6523 477.619 48.986 479.65 48.0021 482.025C47.0181 484.401 46.7607 487.014 47.2623 489.536C47.7639 492.058 49.002 494.374 50.8201 496.192C52.6382 498.01 54.9546 499.249 57.4763 499.75C59.9981 500.252 62.612 499.994 64.9874 499.01C67.3628 498.026 69.3932 496.36 70.8216 494.222C72.2501 492.085 73.0125 489.571 73.0125 487C73.0059 483.554 71.6341 480.251 69.1976 477.815C66.7611 475.378 63.4583 474.007 60.0125 474ZM60.0125 498C57.8369 498 55.7102 497.355 53.9012 496.146C52.0923 494.937 50.6824 493.22 49.8498 491.21C49.0173 489.2 48.7994 486.988 49.2239 484.854C49.6483 482.72 50.696 480.76 52.2343 479.222C53.7727 477.683 55.7327 476.636 57.8665 476.211C60.0003 475.787 62.212 476.005 64.222 476.837C66.232 477.67 67.95 479.08 69.1587 480.889C70.3674 482.698 71.0125 484.824 71.0125 487C71.0092 489.916 69.8492 492.712 67.787 494.775C65.7248 496.837 62.9289 497.997 60.0125 498ZM65.2375 480.438L57.475 483.962C57.25 484.071 57.0722 484.257 56.975 484.488L53.7875 491.913C53.7091 492.096 53.6874 492.299 53.7253 492.495C53.7631 492.691 53.8588 492.871 54 493.013C54.192 493.196 54.447 493.299 54.7125 493.3C54.8452 493.299 54.9767 493.274 55.1 493.225L62.525 490.038C62.7551 489.94 62.9418 489.763 63.05 489.538L66.5625 481.762C66.6401 481.577 66.6608 481.373 66.622 481.176C66.5832 480.979 66.4866 480.798 66.3445 480.655C66.2025 480.513 66.0213 480.417 65.8242 480.378C65.6271 480.339 65.4228 480.36 65.2375 480.438ZM61.3875 488.35L56.6125 490.4L58.6625 485.625L63.6375 483.363L61.3875 488.35Z" fill="#7E839A"/>
<path d="M67.4125 574C67.0263 573.998 66.6488 573.885 66.325 573.675L60.0125 569.688H59.9875L54.125 573.4C53.7463 573.639 53.3049 573.759 52.8573 573.746C52.4097 573.733 51.9763 573.586 51.6125 573.325C51.239 573.05 50.9562 572.67 50.8002 572.234C50.6443 571.797 50.6225 571.324 50.7375 570.875L52.425 564.237C52.4303 564.22 52.4308 564.202 52.4264 564.184C52.422 564.166 52.4128 564.15 52.4 564.138L46.75 559.437C46.428 559.168 46.194 558.809 46.0782 558.406C45.9623 558.003 45.9699 557.574 46.1 557.175C46.2251 556.781 46.4664 556.434 46.792 556.18C47.1177 555.926 47.5126 555.776 47.925 555.75L55.3 555.275C55.3109 555.274 55.3212 555.27 55.33 555.263C55.3388 555.256 55.3457 555.248 55.35 555.237L58.1 548.3C58.2484 547.917 58.5093 547.587 58.8484 547.355C59.1875 547.123 59.5889 546.998 60 546.998C60.411 546.998 60.8125 547.123 61.1515 547.355C61.4906 547.587 61.7515 547.917 61.9 548.3L64.65 555.237C64.6543 555.248 64.6612 555.256 64.67 555.263C64.6787 555.27 64.6891 555.274 64.7 555.275L72.075 555.75C72.4874 555.776 72.8823 555.926 73.2079 556.18C73.5336 556.434 73.7748 556.781 73.9 557.175C74.0301 557.574 74.0377 558.003 73.9218 558.406C73.806 558.809 73.572 559.168 73.25 559.437L67.6 564.138C67.5871 564.15 67.578 564.166 67.5736 564.184C67.5692 564.202 67.5697 564.22 67.575 564.237L69.3875 571.4C69.4951 571.805 69.4774 572.233 69.3369 572.628C69.1963 573.023 68.9394 573.366 68.6 573.612C68.2526 573.859 67.8385 573.994 67.4125 574ZM60 567.688C60.385 567.685 60.7626 567.793 61.0875 568L67.3875 571.987H67.4125C67.4286 571.979 67.4417 571.966 67.45 571.95C67.4625 571.938 67.4625 571.925 67.45 571.875L65.6375 564.712C65.5391 564.331 65.5503 563.929 65.6697 563.553C65.789 563.177 66.0118 562.843 66.3125 562.587L71.975 557.887C71.9875 557.875 72.0125 557.85 71.9875 557.787C71.9625 557.725 71.9625 557.737 71.95 557.737L64.5625 557.262C64.1758 557.235 63.805 557.098 63.4931 556.868C63.1811 556.637 62.9408 556.324 62.8 555.962L60.0375 549.037C60.025 549 60.0125 549 60 549C59.9875 549 59.975 549 59.9625 549.037L57.2 555.975C57.0592 556.336 56.8188 556.65 56.5069 556.88C56.1949 557.11 55.8241 557.247 55.4375 557.275L48.05 557.75C48.0375 557.75 48.025 557.75 48.0125 557.8C48 557.85 48.0125 557.887 48.025 557.9L53.6875 562.6C53.9882 562.855 54.2109 563.19 54.3303 563.566C54.4497 563.941 54.4608 564.343 54.3625 564.725L52.675 571.375C52.6599 571.434 52.6625 571.497 52.6825 571.554C52.7025 571.612 52.739 571.663 52.7875 571.7C52.8224 571.733 52.8681 571.753 52.9164 571.755C52.9646 571.758 53.0121 571.742 53.05 571.712L58.9125 568C59.2373 567.793 59.615 567.685 60 567.688Z" fill="#7E839A"/>
<path d="M61 629V634.425L65.7 637.138C65.8889 637.248 66.0362 637.418 66.1193 637.621C66.2023 637.823 66.2166 638.048 66.1598 638.259C66.103 638.471 65.9783 638.658 65.8049 638.792C65.6316 638.925 65.419 638.999 65.2 639C65.0234 639.005 64.8493 638.957 64.7 638.862L59.5 635.862H59.475L59.425 635.825L59.3875 635.8L59.35 635.775L59.3125 635.737L59.2875 635.712C59.2625 635.7 59.25 635.675 59.2375 635.663L59.2125 635.638L59.1875 635.587L59.1625 635.55L59.1375 635.513C59.1298 635.507 59.1235 635.499 59.1191 635.49C59.1148 635.482 59.1125 635.472 59.1125 635.462L59.0875 635.425C59.0875 635.412 59.075 635.4 59.075 635.375C59.0705 635.37 59.0671 635.364 59.0649 635.358C59.0628 635.351 59.0619 635.344 59.0625 635.337L59.0375 635.288C59.0381 635.281 59.0373 635.274 59.0351 635.267C59.033 635.261 59.0295 635.255 59.025 635.25C59.025 635.225 59.025 635.213 59.0125 635.2V635.15C59.0125 635.125 59 635.113 59 635.1V629C59 628.735 59.1054 628.48 59.2929 628.293C59.4804 628.105 59.7348 628 60 628C60.2652 628 60.5196 628.105 60.7071 628.293C60.8947 628.48 61 628.735 61 629ZM72.85 632.025C72.8625 632 72.875 631.987 72.875 631.975L72.9 631.937C72.9125 631.925 72.9125 631.9 72.925 631.887L72.95 631.85C72.9481 631.832 72.9526 631.815 72.9625 631.8C72.9625 631.787 72.975 631.775 72.975 631.75C72.9795 631.745 72.983 631.739 72.9851 631.733C72.9873 631.726 72.9881 631.719 72.9875 631.712C72.9875 631.687 73 631.675 73 631.662C73 631.65 73.0125 631.625 73.0125 631.612V631.562C73.0228 631.53 73.027 631.496 73.025 631.462V626.462C73.025 626.197 72.9197 625.943 72.7321 625.755C72.5446 625.568 72.2902 625.462 72.025 625.462C71.7598 625.462 71.5054 625.568 71.3179 625.755C71.1304 625.943 71.025 626.197 71.025 626.462V629.05L68.4875 626.512C66.809 624.835 64.6708 623.693 62.3432 623.23C60.0156 622.768 57.6032 623.006 55.4108 623.914C53.2185 624.822 51.3447 626.361 50.0264 628.334C48.7081 630.307 48.0045 632.627 48.0045 635C48.0045 637.373 48.7081 639.693 50.0264 641.666C51.3447 643.639 53.2185 645.178 55.4108 646.086C57.6032 646.994 60.0156 647.232 62.3432 646.77C64.6708 646.307 66.809 645.165 68.4875 643.487C68.6745 643.3 68.7795 643.046 68.7795 642.781C68.7795 642.516 68.6745 642.262 68.4875 642.075C68.3955 641.981 68.2857 641.906 68.1644 641.855C68.0431 641.804 67.9129 641.778 67.7813 641.778C67.6497 641.778 67.5194 641.804 67.3981 641.855C67.2768 641.906 67.167 641.981 67.075 642.075C65.676 643.472 63.8942 644.424 61.9547 644.809C60.0152 645.194 58.0051 644.995 56.1785 644.238C54.3519 643.481 52.7907 642.199 51.6924 640.555C50.5941 638.91 50.0079 636.977 50.0079 635C50.0079 633.023 50.5941 631.09 51.6924 629.445C52.7907 627.801 54.3519 626.519 56.1785 625.762C58.0051 625.005 60.0152 624.806 61.9547 625.191C63.8942 625.576 65.676 626.528 67.075 627.925L69.6125 630.462H67.025C66.7598 630.462 66.5054 630.568 66.3179 630.755C66.1304 630.943 66.025 631.197 66.025 631.462C66.025 631.728 66.1304 631.982 66.3179 632.17C66.5054 632.357 66.7598 632.462 67.025 632.462H72.3125L72.3625 632.437H72.4L72.45 632.412H72.4875L72.5375 632.387L72.575 632.362L72.625 632.325L72.65 632.3L72.8 632.162L72.825 632.125L72.85 632.025Z" fill="#7E839A"/>
<path d="M71 699H66V698C65.9967 697.205 65.6796 696.444 65.1177 695.882C64.5558 695.32 63.7946 695.003 63 695H57C56.2054 695.003 55.4442 695.32 54.8823 695.882C54.3204 696.444 54.0033 697.205 54 698V699H49C48.7348 699 48.4804 699.105 48.2929 699.293C48.1054 699.48 48 699.735 48 700C48 700.265 48.1054 700.52 48.2929 700.707C48.4804 700.895 48.7348 701 49 701H50V719C50 719.53 50.2107 720.039 50.5858 720.414C50.9609 720.789 51.4696 721 52 721H68C68.5304 721 69.0391 720.789 69.4142 720.414C69.7893 720.039 70 719.53 70 719V701H71C71.2652 701 71.5196 700.895 71.7071 700.707C71.8946 700.52 72 700.265 72 700C72 699.735 71.8946 699.48 71.7071 699.293C71.5196 699.105 71.2652 699 71 699ZM56 698C56 697.735 56.1054 697.48 56.2929 697.293C56.4804 697.105 56.7348 697 57 697H63C63.2652 697 63.5196 697.105 63.7071 697.293C63.8946 697.48 64 697.735 64 698V699H56V698ZM68 719H52V701H68V719ZM58 706V714C58 714.265 57.8946 714.52 57.7071 714.707C57.5196 714.895 57.2652 715 57 715C56.7348 715 56.4804 714.895 56.2929 714.707C56.1054 714.52 56 714.265 56 714V706C56 705.735 56.1054 705.48 56.2929 705.293C56.4804 705.105 56.7348 705 57 705C57.2652 705 57.5196 705.105 57.7071 705.293C57.8946 705.48 58 705.735 58 706ZM64 706V714C64 714.265 63.8946 714.52 63.7071 714.707C63.5196 714.895 63.2652 715 63 715C62.7348 715 62.4804 714.895 62.2929 714.707C62.1054 714.52 62 714.265 62 714V706C62 705.735 62.1054 705.48 62.2929 705.293C62.4804 705.105 62.7348 705 63 705C63.2652 705 63.5196 705.105 63.7071 705.293C63.8946 705.48 64 705.735 64 706Z" fill="#7E839A"/>
<path d="M71.7125 966.712L66.4625 971.962C66.2705 972.146 66.0155 972.249 65.75 972.25C65.5517 972.25 65.358 972.19 65.1935 972.08C65.0289 971.969 64.901 971.812 64.826 971.628C64.751 971.445 64.7322 971.243 64.7721 971.049C64.812 970.855 64.9087 970.677 65.05 970.538L68.5875 967H57C56.7348 967 56.4804 966.895 56.2929 966.707C56.1054 966.52 56 966.265 56 966C56 965.735 56.1054 965.48 56.2929 965.293C56.4804 965.105 56.7348 965 57 965H68.5875L65.05 961.462C64.861 961.275 64.7542 961.02 64.753 960.754C64.7519 960.488 64.8564 960.233 65.0438 960.044C65.2311 959.855 65.4858 959.748 65.7518 959.747C66.0179 959.746 66.2735 959.85 66.4625 960.038L71.7125 965.288C71.9003 965.477 72.0056 965.733 72.0056 966C72.0056 966.267 71.9003 966.523 71.7125 966.712ZM57 976H50V956H57C57.2652 956 57.5196 955.895 57.7071 955.707C57.8946 955.52 58 955.265 58 955C58 954.735 57.8946 954.48 57.7071 954.293C57.5196 954.105 57.2652 954 57 954H50C49.4696 954 48.9609 954.211 48.5858 954.586C48.2107 954.961 48 955.47 48 956V976C48 976.53 48.2107 977.039 48.5858 977.414C48.9609 977.789 49.4696 978 50 978H57C57.2652 978 57.5196 977.895 57.7071 977.707C57.8946 977.52 58 977.265 58 977C58 976.735 57.8946 976.48 57.7071 976.293C57.5196 976.105 57.2652 976 57 976Z" fill="#7E839A"/>
<path d="M76.625 73.875V78.625C76.625 79.2549 76.3748 79.859 75.9294 80.3044C75.484 80.7498 74.8799 81 74.25 81C73.6201 81 73.016 80.7498 72.5706 80.3044C72.1252 79.859 71.875 79.2549 71.875 78.625V73.875C71.875 70.7256 70.6239 67.7051 68.3969 65.4781C66.1699 63.2511 63.1494 62 60 62C56.8506 62 53.8301 63.2511 51.6031 65.4781C49.3761 67.7051 48.125 70.7256 48.125 73.875V78.625C48.125 79.2549 47.8748 79.859 47.4294 80.3044C46.984 80.7498 46.3799 81 45.75 81C45.1201 81 44.516 80.7498 44.0706 80.3044C43.6252 79.859 43.375 79.2549 43.375 78.625V73.875C43.375 69.4658 45.1266 65.2371 48.2444 62.1194C51.3621 59.0016 55.5908 57.25 60 57.25C64.4092 57.25 68.6379 59.0016 71.7556 62.1194C74.8734 65.2371 76.625 69.4658 76.625 73.875ZM60 47.75C53.0736 47.7579 46.4332 50.5128 41.5355 55.4105C36.6378 60.3082 33.8829 66.9486 33.875 73.875V78.625C33.875 79.2549 34.1252 79.859 34.5706 80.3044C35.016 80.7498 35.6201 81 36.25 81C36.8799 81 37.484 80.7498 37.9294 80.3044C38.3748 79.859 38.625 79.2549 38.625 78.625V73.875C38.625 68.206 40.877 62.7692 44.8856 58.7606C48.8942 54.752 54.331 52.5 60 52.5C65.669 52.5 71.1058 54.752 75.1144 58.7606C79.123 62.7692 81.375 68.206 81.375 73.875V78.625C81.375 79.2549 81.6252 79.859 82.0706 80.3044C82.516 80.7498 83.1201 81 83.75 81C84.3799 81 84.984 80.7498 85.4294 80.3044C85.8748 79.859 86.125 79.2549 86.125 78.625V73.875C86.1171 66.9486 83.3622 60.3082 78.4645 55.4105C73.5668 50.5128 66.9264 47.7579 60 47.75ZM60 38.25C50.5541 38.2579 41.4973 42.0137 34.818 48.693C28.1387 55.3723 24.3829 64.4291 24.375 73.875V78.625C24.375 79.2549 24.6252 79.859 25.0706 80.3044C25.516 80.7498 26.1201 81 26.75 81C27.3799 81 27.984 80.7498 28.4294 80.3044C28.8748 79.859 29.125 79.2549 29.125 78.625V73.875C29.125 65.6864 32.3779 57.8333 38.1681 52.0431C43.9583 46.2529 51.8114 43 60 43C68.1886 43 76.0417 46.2529 81.8319 52.0431C87.6221 57.8333 90.875 65.6864 90.875 73.875V78.625C90.875 79.2549 91.1252 79.859 91.5706 80.3044C92.016 80.7498 92.6201 81 93.25 81C93.8799 81 94.484 80.7498 94.9294 80.3044C95.3748 79.859 95.625 79.2549 95.625 78.625V73.875C95.6171 64.4291 91.8613 55.3723 85.182 48.693C78.5027 42.0137 69.4459 38.2579 60 38.25Z" fill="#00B2D6"/>
<defs>
<filter id="filter0_d_140_2152" x="-30" y="-42" width="204" height="1108" filterUnits="userSpaceOnUse" color-interpolation-filters="sRGB">
<feFlood flood-opacity="0" result="BackgroundImageFix"/>
<feColorMatrix in="SourceAlpha" type="matrix" values="0 0 0 0 0 0 0 0 0 0 0 0 0 0 0 0 0 0 127 0" result="hardAlpha"/>
<feOffset dx="12"/>
<feGaussianBlur stdDeviation="21"/>
<feComposite in2="hardAlpha" operator="out"/>
<feColorMatrix type="matrix" values="0 0 0 0 0.1344 0 0 0 0 0.142933 0 0 0 0 0.1856 0 0 0 0.04 0"/>
<feBlend mode="normal" in2="BackgroundImageFix" result="effect1_dropShadow_140_2152"/>
<feBlend mode="normal" in="SourceGraphic" in2="effect1_dropShadow_140_2152" result="shape"/>
</filter>
</defs>
</svg>
