<svg width="40" height="40" viewBox="0 0 40 40" fill="none" xmlns="http://www.w3.org/2000/svg">
<path d="M32.75 15.5835C32.75 15.1693 32.4142 14.8335 32 14.8335C31.5858 14.8335 31.25 15.1693 31.25 15.5835H32.75ZM5.60565 27.1411C5.36134 26.8066 4.89213 26.7335 4.55764 26.9778C4.22314 27.2222 4.15004 27.6914 4.39435 28.0259L5.60565 27.1411ZM4.87257 26.8444C4.46438 26.9148 4.19053 27.3027 4.2609 27.7109C4.33128 28.1191 4.71924 28.393 5.12743 28.3226L4.87257 26.8444ZM9.5 26.0835L9.73829 26.7946C9.98386 26.7123 10.1696 26.5092 10.2296 26.2572C10.2896 26.0053 10.2154 25.7402 10.0332 25.5561L9.5 26.0835ZM8 8.0835L8.66058 7.72834C8.53797 7.50028 8.30639 7.3516 8.04798 7.33503C7.78958 7.31847 7.54091 7.43636 7.39018 7.6469L8 8.0835ZM17 15.5835L16.8229 16.3123C17.0422 16.3656 17.2739 16.3173 17.4537 16.1807C17.6334 16.0442 17.7421 15.8339 17.7496 15.6083L17 15.5835ZM30.5 11.0835L29.8738 11.4963C30.0126 11.7068 30.2479 11.8335 30.5 11.8335V11.0835ZM35 11.0835L35.624 11.4995C35.7775 11.2694 35.7918 10.9735 35.6613 10.7296C35.5307 10.4857 35.2766 10.3335 35 10.3335V11.0835ZM31.376 15.1675C31.1462 15.5121 31.2393 15.9778 31.584 16.2075C31.9286 16.4373 32.3943 16.3442 32.624 15.9995L31.376 15.1675ZM31.25 15.5835C31.25 20.6955 29.7901 25.0045 27.1251 28.0248C24.4704 31.0334 20.5593 32.8335 15.5 32.8335V34.3335C20.9407 34.3335 25.2796 32.3836 28.2499 29.0172C31.2099 25.6625 32.75 20.9715 32.75 15.5835H31.25ZM15.5 32.8335C12.6446 32.8335 10.6969 32.0928 9.21884 31.0469C7.71787 29.9848 6.65672 28.5802 5.60565 27.1411L4.39435 28.0259C5.43828 29.4551 6.62713 31.0505 8.35241 32.2713C10.1006 33.5084 12.3554 34.3335 15.5 34.3335V32.8335ZM5.12743 28.3226C5.16559 28.316 5.19638 28.3074 5.19656 28.3073C5.20532 28.305 5.21263 28.3029 5.21676 28.3017C5.22545 28.2991 5.23389 28.2965 5.24031 28.2945C5.25381 28.2903 5.27054 28.2849 5.28892 28.279C5.32625 28.267 5.37817 28.25 5.44171 28.2291C5.56916 28.1871 5.74789 28.1279 5.96014 28.0573C6.38485 27.9161 6.94629 27.7287 7.50585 27.5417C8.0655 27.3547 8.6236 27.1679 9.04177 27.0279C9.25086 26.9579 9.42498 26.8996 9.54683 26.8588C9.60776 26.8384 9.65561 26.8223 9.68824 26.8114C9.70456 26.8059 9.71707 26.8017 9.7255 26.7989C9.72971 26.7975 9.73291 26.7964 9.73505 26.7957C9.73612 26.7954 9.73693 26.7951 9.73747 26.7949C9.73774 26.7948 9.73795 26.7948 9.73808 26.7947C9.73815 26.7947 9.7382 26.7947 9.73824 26.7947C9.73827 26.7946 9.73829 26.7946 9.5 26.0835C9.26171 25.3724 9.26169 25.3724 9.26166 25.3724C9.26163 25.3724 9.26158 25.3724 9.26151 25.3724C9.26138 25.3725 9.26117 25.3725 9.2609 25.3726C9.26037 25.3728 9.25956 25.3731 9.25849 25.3734C9.25636 25.3742 9.25317 25.3752 9.24896 25.3766C9.24054 25.3795 9.22804 25.3836 9.21174 25.3891C9.17914 25.4 9.13131 25.416 9.07042 25.4364C8.94863 25.4772 8.77458 25.5355 8.56557 25.6055C8.14754 25.7454 7.58971 25.9321 7.0304 26.119C6.47101 26.306 5.91046 26.4931 5.4869 26.6339C5.275 26.7044 5.09801 26.763 4.97277 26.8042C4.90995 26.8249 4.86127 26.8408 4.82809 26.8515C4.81121 26.857 4.80019 26.8605 4.79401 26.8624C4.79059 26.8635 4.7912 26.8633 4.79416 26.8624C4.79541 26.862 4.80037 26.8606 4.80731 26.8587C4.81079 26.8578 4.81716 26.8561 4.8253 26.8541C4.83113 26.8527 4.84911 26.8484 4.87257 26.8444L5.12743 28.3226ZM10.0332 25.5561C5.28541 20.7561 4.92817 13.6624 8.60982 8.5201L7.39018 7.6469C3.29183 13.3712 3.69459 21.2809 8.96678 26.6109L10.0332 25.5561ZM7.33942 8.43865C9.25749 12.0062 12.8552 15.348 16.8229 16.3123L17.1771 14.8547C13.7248 14.0157 10.4325 11.0241 8.66058 7.72834L7.33942 8.43865ZM17.7496 15.6083C17.8158 13.6056 18.5248 11.9165 19.6829 10.7331C20.837 9.55371 22.4784 8.8335 24.5 8.8335V7.3335C22.1033 7.3335 20.0663 8.19662 18.6108 9.68393C17.1594 11.1672 16.3275 13.228 16.2504 15.5587L17.7496 15.6083ZM24.5 8.8335C25.9073 8.8335 26.9754 9.10107 27.8169 9.55017C28.6568 9.9984 29.3174 10.6522 29.8738 11.4963L31.1262 10.6707C30.4609 9.66148 29.6257 8.81526 28.5231 8.22683C27.4221 7.63925 26.101 7.3335 24.5 7.3335V8.8335ZM30.5 11.8335H35V10.3335H30.5V11.8335ZM34.376 10.6675L31.376 15.1675L32.624 15.9995L35.624 11.4995L34.376 10.6675Z" fill="white"/>
</svg>
