<svg width="20" height="20" viewBox="0 0 20 20" fill="none" xmlns="http://www.w3.org/2000/svg">
<path fill-rule="evenodd" clip-rule="evenodd" d="M9.80082 17.3781C7.99198 16.2648 6.30924 14.9546 4.78273 13.4709C3.70952 12.4024 2.8925 11.0998 2.39424 9.66277C1.49762 6.87521 2.54493 3.68399 5.47592 2.73957C7.01633 2.24367 8.69869 2.5271 9.99672 3.5012C11.2952 2.52828 12.977 2.24495 14.5175 2.73957C17.4485 3.68399 18.5034 6.87521 17.6067 9.66277C17.1085 11.0998 16.2914 12.4024 15.2182 13.4709C13.6917 14.9546 12.009 16.2648 10.2002 17.3781L10.0043 17.4999L9.80082 17.3781Z" stroke="white" stroke-linecap="round" stroke-linejoin="round"/>
<path d="M13.1162 5.87749C14.004 6.16107 14.6348 6.95807 14.7136 7.8958" stroke="white" stroke-linecap="round" stroke-linejoin="round"/>
</svg>
