<svg width="52" height="42" viewBox="0 0 52 42" fill="none" xmlns="http://www.w3.org/2000/svg">
<circle cx="21" cy="21" r="21" fill="#395A6A"/>
<rect x="32" y="22" width="20" height="20" rx="10" fill="#26DC43"/>
<path d="M40.875 35C40.7756 34.9986 40.6803 34.9602 40.6078 34.8922L37.9828 32.2672C37.923 32.1943 37.8924 32.1018 37.8971 32.0077C37.9017 31.9135 37.9412 31.8245 38.0078 31.7578C38.0745 31.6912 38.1635 31.6517 38.2577 31.6471C38.3518 31.6425 38.4443 31.673 38.5172 31.7328L40.875 34.0953L45.8578 29.1078C45.9307 29.048 46.0232 29.0175 46.1173 29.0221C46.2114 29.0267 46.3005 29.0662 46.3672 29.1328C46.4338 29.1995 46.4733 29.2885 46.4779 29.3827C46.4825 29.4768 46.452 29.5693 46.3922 29.6422L41.1422 34.8922C41.0697 34.9602 40.9744 34.9986 40.875 35Z" fill="#E2E7E9"/>
</svg>
