<svg width="21" height="21" viewBox="0 0 21 21" fill="none" xmlns="http://www.w3.org/2000/svg">
<path d="M7.79074 4.15005C7.61021 3.96634 7.38564 3.83193 7.13844 3.75962C6.89124 3.68731 6.62964 3.67951 6.37857 3.73696C6.12521 3.79296 5.89016 3.91218 5.6953 4.08352C5.50045 4.25485 5.35214 4.47273 5.2642 4.71684L0.0862492 18.9442C0.00550162 19.1758 -0.0190277 19.4232 0.0146852 19.6661C0.0483981 19.909 0.139387 20.1404 0.280143 20.3412C0.4209 20.542 0.60739 20.7065 0.824226 20.821C1.04106 20.9356 1.28203 20.9969 1.52724 21C1.7069 21.0003 1.88539 20.9711 2.0556 20.9135L16.283 15.7356C16.5271 15.6477 16.7449 15.4993 16.9163 15.3045C17.0876 15.1096 17.2068 14.8746 17.2628 14.6212C17.3203 14.3702 17.3125 14.1086 17.2402 13.8614C17.1679 13.6142 17.0335 13.3896 16.8497 13.2091L7.79074 4.15005ZM7.21434 17.3975L3.60226 13.7855L4.86072 10.3079L10.6919 16.1391L7.21434 17.3975ZM1.53684 19.463L3.01626 15.3802L5.61965 17.9835L1.53684 19.463ZM12.2866 15.5531L5.44673 8.71318L6.70519 5.23559L15.7642 14.2946L12.2866 15.5531ZM12.546 6.14822C12.5601 5.62845 12.6846 5.11763 12.911 4.64959C13.4202 3.63129 14.3809 3.07411 15.6201 3.07411C16.2637 3.07411 16.6768 2.85316 16.9362 2.38243C17.0684 2.11588 17.1437 1.8247 17.1572 1.52745C17.1572 1.42697 17.1771 1.32749 17.2158 1.23479C17.2546 1.14208 17.3113 1.05798 17.3828 0.987385C17.4543 0.916785 17.5391 0.861085 17.6323 0.823516C17.7255 0.785946 17.8252 0.767255 17.9257 0.768527C18.1295 0.768527 18.325 0.849497 18.4691 0.993624C18.6132 1.13775 18.6942 1.33323 18.6942 1.53705C18.6942 2.7763 17.8777 4.61116 15.6201 4.61116C14.9765 4.61116 14.5634 4.83212 14.304 5.30284C14.1718 5.5694 14.0965 5.86058 14.0831 6.15782C14.0831 6.2583 14.0631 6.35778 14.0244 6.45049C13.9856 6.5432 13.9289 6.62729 13.8574 6.69789C13.7859 6.76849 13.7011 6.82419 13.6079 6.86176C13.5147 6.89933 13.415 6.91802 13.3145 6.91674C13.1107 6.91674 12.9152 6.83578 12.7711 6.69165C12.627 6.54752 12.546 6.35204 12.546 6.14822ZM10.2404 3.07411V0.768527C10.2404 0.564701 10.3214 0.369223 10.4655 0.225096C10.6096 0.0809696 10.8051 0 11.0089 0C11.2128 0 11.4082 0.0809696 11.5524 0.225096C11.6965 0.369223 11.7775 0.564701 11.7775 0.768527V3.07411C11.7775 3.27793 11.6965 3.47341 11.5524 3.61754C11.4082 3.76167 11.2128 3.84264 11.0089 3.84264C10.8051 3.84264 10.6096 3.76167 10.4655 3.61754C10.3214 3.47341 10.2404 3.27793 10.2404 3.07411ZM20.0103 10.9803C20.1546 11.126 20.2356 11.3228 20.2356 11.5279C20.2356 11.733 20.1546 11.9298 20.0103 12.0755C19.8634 12.2175 19.6671 12.2969 19.4627 12.2969C19.2584 12.2969 19.0621 12.2175 18.9152 12.0755L17.3781 10.5384C17.2556 10.3891 17.1929 10.1995 17.2024 10.0066C17.2119 9.81366 17.2928 9.63114 17.4294 9.49455C17.566 9.35795 17.7485 9.27705 17.9414 9.26757C18.1344 9.2581 18.3239 9.32073 18.4733 9.44328L20.0103 10.9803ZM20.4714 6.87832L18.1659 7.64685C18.0886 7.67354 18.0074 7.68655 17.9257 7.68527C17.7429 7.68532 17.5661 7.62022 17.427 7.50166C17.2879 7.38309 17.1956 7.21883 17.1666 7.03835C17.1377 6.85788 17.1741 6.673 17.2692 6.5169C17.3643 6.36081 17.5119 6.24372 17.6855 6.18664L19.9911 5.41812C20.087 5.38658 20.1881 5.37423 20.2888 5.38179C20.3894 5.38934 20.4876 5.41664 20.5777 5.46214C20.6678 5.50763 20.7481 5.57043 20.8139 5.64694C20.8797 5.72345 20.9298 5.81217 20.9614 5.90805C20.9929 6.00393 21.0053 6.10508 20.9977 6.20573C20.9901 6.30638 20.9628 6.40456 20.9173 6.49466C20.8719 6.58475 20.8091 6.66501 20.7325 6.73084C20.656 6.79667 20.5673 6.84678 20.4714 6.87832Z" fill="#3E4B65"/>
</svg>
