<svg width="24" height="24" viewBox="0 0 24 24" fill="none" xmlns="http://www.w3.org/2000/svg">
<path d="M20.7001 16.4906C20.1469 15.5344 19.4813 13.7156 19.4813 10.5V9.83438C19.4813 5.68125 16.1532 2.27813 12.0563 2.25H12C11.0164 2.25123 10.0426 2.4462 9.13422 2.82378C8.22589 3.20135 7.40082 3.75414 6.70612 4.45058C6.01142 5.14702 5.4607 5.97347 5.0854 6.88275C4.7101 7.79202 4.51757 8.76632 4.5188 9.75V10.5C4.5188 13.7156 3.85317 15.5344 3.30005 16.4906C3.16628 16.7185 3.09508 16.9777 3.09365 17.2419C3.09222 17.5061 3.16062 17.7661 3.29193 17.9954C3.42323 18.2247 3.61278 18.4152 3.84139 18.5477C4.07 18.6803 4.32956 18.75 4.5938 18.75H8.25005C8.25005 19.7446 8.64514 20.6984 9.3484 21.4016C10.0517 22.1049 11.0055 22.5 12 22.5C12.9946 22.5 13.9484 22.1049 14.6517 21.4016C15.355 20.6984 15.75 19.7446 15.75 18.75H19.4063C19.6705 18.7517 19.9304 18.6831 20.1594 18.5513C20.3883 18.4196 20.5782 18.2293 20.7094 18C20.8396 17.7694 20.9072 17.5088 20.9055 17.2441C20.9039 16.9793 20.833 16.7196 20.7001 16.4906ZM12 21C11.4041 20.9975 10.8332 20.7597 10.4118 20.3383C9.99036 19.9168 9.75252 19.346 9.75005 18.75H14.25C14.2476 19.346 14.0097 19.9168 13.5883 20.3383C13.1669 20.7597 12.596 20.9975 12 21ZM4.5938 17.25C5.24067 16.125 6.0188 14.0531 6.0188 10.5V9.75C6.01633 8.96295 6.16922 8.18316 6.4687 7.45532C6.76818 6.72747 7.20837 6.06589 7.76402 5.50849C8.31968 4.95109 8.97988 4.50884 9.70678 4.20708C10.4337 3.90533 11.213 3.75 12 3.75H12.0469C15.3188 3.76875 17.9813 6.50625 17.9813 9.83438V10.5C17.9813 14.0531 18.7594 16.125 19.4063 17.25H4.5938Z" fill="white"/>
</svg>
