<svg width="18" height="18" viewBox="0 0 18 18" fill="none" xmlns="http://www.w3.org/2000/svg">
<path d="M12.9375 9C12.9355 9.14909 12.8778 9.29204 12.7758 9.40078L7.15082 15.0258C7.04153 15.1155 6.90278 15.1613 6.76156 15.1544C6.62035 15.1474 6.48676 15.0882 6.38678 14.9883C6.28681 14.8883 6.22759 14.7547 6.22066 14.6135C6.21372 14.4723 6.25956 14.3335 6.34926 14.2242L11.5805 9L6.34926 3.77578C6.25956 3.66649 6.21372 3.52774 6.22066 3.38652C6.22759 3.24531 6.28681 3.11172 6.38678 3.01174C6.48676 2.91177 6.62035 2.85255 6.76156 2.84562C6.90278 2.83868 7.04153 2.88452 7.15082 2.97422L12.7758 8.59922C12.8778 8.70796 12.9355 8.85091 12.9375 9Z" fill="#E2E5E9"/>
</svg>
