<svg width="23" height="24" viewBox="0 0 23 24" fill="none" xmlns="http://www.w3.org/2000/svg">
<g clip-path="url(#clip0_0_468)">
<path d="M11.4998 22C16.7926 22 21.0832 17.5228 21.0832 12C21.0832 6.47715 16.7926 2 11.4998 2C6.20711 2 1.9165 6.47715 1.9165 12C1.9165 17.5228 6.20711 22 11.4998 22Z" fill="#F0F0F0"/>
<path d="M3.8975 5.91177C3.14472 6.93377 2.57709 8.1117 2.24658 9.39134H7.23209L3.8975 5.91177Z" fill="#0052B4"/>
<path d="M20.753 9.39137C20.4225 8.11176 19.8548 6.93383 19.1021 5.91183L15.7676 9.39137H20.753Z" fill="#0052B4"/>
<path d="M2.24658 14.6087C2.57713 15.8883 3.14476 17.0663 3.8975 18.0882L7.23197 14.6087H2.24658Z" fill="#0052B4"/>
<path d="M17.3346 4.06722C16.3551 3.28171 15.2263 2.6894 14 2.34448V7.54671L17.3346 4.06722Z" fill="#0052B4"/>
<path d="M5.66504 19.9328C6.64445 20.7183 7.7733 21.3106 8.99959 21.6555V16.4533L5.66504 19.9328Z" fill="#0052B4"/>
<path d="M8.99955 2.34448C7.77326 2.6894 6.64441 3.28171 5.66504 4.06718L8.99955 7.54667V2.34448Z" fill="#0052B4"/>
<path d="M14 21.6555C15.2263 21.3106 16.3551 20.7183 17.3345 19.9328L14 16.4533V21.6555Z" fill="#0052B4"/>
<path d="M15.7676 14.6087L19.1021 18.0883C19.8548 17.0663 20.4225 15.8883 20.753 14.6087H15.7676Z" fill="#0052B4"/>
<path d="M21.0021 10.6957H12.7499H12.7499V2.08465C12.3407 2.02906 11.9235 2 11.4998 2C11.0761 2 10.659 2.02906 10.2498 2.08465V10.6956V10.6956H1.99763C1.94436 11.1226 1.9165 11.5579 1.9165 12C1.9165 12.4421 1.94436 12.8774 1.99763 13.3043H10.2498H10.2498V21.9154C10.659 21.9709 11.0761 22 11.4998 22C11.9235 22 12.3407 21.971 12.7498 21.9154V13.3044V13.3044H21.0021C21.0553 12.8774 21.0832 12.4421 21.0832 12C21.0832 11.5579 21.0553 11.1226 21.0021 10.6957Z" fill="#D80027"/>
<path d="M14 14.6087L18.2764 19.0711C18.4731 18.8659 18.6607 18.6514 18.8397 18.4291L15.1785 14.6087H14V14.6087Z" fill="#D80027"/>
<path d="M8.99959 14.6088H8.99952L4.72314 19.0711C4.91975 19.2763 5.12531 19.4721 5.33839 19.6589L8.99959 15.8384V14.6088Z" fill="#D80027"/>
<path d="M8.99989 9.39135V9.39128L4.72348 4.92889C4.52679 5.13405 4.33917 5.34854 4.16016 5.57089L7.8214 9.39132H8.99989V9.39135Z" fill="#D80027"/>
<path d="M14 9.39139L18.2765 4.92896C18.0798 4.72373 17.8743 4.52794 17.6612 4.34119L14 8.16162V9.39139Z" fill="#D80027"/>
</g>
<defs>
<clipPath id="clip0_0_468">
<rect width="19.1667" height="20" fill="white" transform="translate(1.9165 2)"/>
</clipPath>
</defs>
</svg>
