<svg width="8" height="14" viewBox="0 0 8 14" fill="none" xmlns="http://www.w3.org/2000/svg">
<path d="M0.641674 -6.81496e-06C0.810785 0.0022908 0.972928 0.0677173 1.09627 0.183429L7.47664 6.56379C7.59645 6.68476 7.66366 6.84813 7.66366 7.01839C7.66366 7.18865 7.59645 7.35202 7.47664 7.47299L1.09627 13.8534C0.972307 13.9551 0.814928 14.0071 0.654747 13.9992C0.494567 13.9914 0.343038 13.9242 0.229637 13.8108C0.116236 13.6974 0.0490692 13.5459 0.0412023 13.3857C0.0333349 13.2255 0.0853306 13.0681 0.187074 12.9441L6.12081 7.01839L0.187074 1.09263C0.0672627 0.971662 4.96519e-05 0.808287 4.96519e-05 0.638029C4.96519e-05 0.467771 0.0672627 0.304396 0.187074 0.183429C0.31042 0.0677173 0.472564 0.0022908 0.641674 -6.81496e-06Z" fill="white"/>
</svg>
