<svg width="16" height="16" viewBox="0 0 16 16" fill="none" xmlns="http://www.w3.org/2000/svg">
<path d="M6.66667 8H3.33333C2.97971 8 2.64057 7.85952 2.39052 7.60948C2.14048 7.35943 2 7.02029 2 6.66667V3.33333C2 2.97971 2.14048 2.64057 2.39052 2.39052C2.64057 2.14048 2.97971 2 3.33333 2H6.66667C7.02029 2 7.35943 2.14048 7.60948 2.39052C7.85952 2.64057 8 2.97971 8 3.33333V6.66667C8 7.02029 7.85952 7.35943 7.60948 7.60948C7.35943 7.85952 7.02029 8 6.66667 8Z" stroke="#7C876E" stroke-width="1.25" stroke-linecap="round" stroke-linejoin="round"/>
<path d="M12.3335 13.3333H10.3335C10.0683 13.3333 9.81393 13.2279 9.62639 13.0404C9.43885 12.8528 9.3335 12.5985 9.3335 12.3333V10.3333C9.3335 10.068 9.43885 9.81368 9.62639 9.62615C9.81393 9.43861 10.0683 9.33325 10.3335 9.33325H12.3335C12.5987 9.33325 12.8531 9.43861 13.0406 9.62615C13.2281 9.81368 13.3335 10.068 13.3335 10.3333V12.3333C13.3335 12.5985 13.2281 12.8528 13.0406 13.0404C12.8531 13.2279 12.5987 13.3333 12.3335 13.3333Z" stroke="#7C876E" stroke-width="1.25" stroke-linecap="round" stroke-linejoin="round"/>
<path d="M13 7.33325H11C10.7348 7.33325 10.4804 7.2279 10.2929 7.04036C10.1054 6.85282 10 6.59847 10 6.33325V4.33325C10 4.06804 10.1054 3.81368 10.2929 3.62615C10.4804 3.43861 10.7348 3.33325 11 3.33325H13C13.2652 3.33325 13.5196 3.43861 13.7071 3.62615C13.8946 3.81368 14 4.06804 14 4.33325V6.33325C14 6.59847 13.8946 6.85282 13.7071 7.04036C13.5196 7.2279 13.2652 7.33325 13 7.33325Z" stroke="#7C876E" stroke-width="1.25" stroke-linecap="round" stroke-linejoin="round"/>
<path d="M6.3335 14H4.3335C4.06828 14 3.81393 13.8946 3.62639 13.7071C3.43885 13.5196 3.3335 13.2652 3.3335 13V11C3.3335 10.7348 3.43885 10.4804 3.62639 10.2929C3.81393 10.1054 4.06828 10 4.3335 10H6.3335C6.59871 10 6.85307 10.1054 7.0406 10.2929C7.22814 10.4804 7.3335 10.7348 7.3335 11V13C7.3335 13.2652 7.22814 13.5196 7.0406 13.7071C6.85307 13.8946 6.59871 14 6.3335 14Z" stroke="#7C876E" stroke-width="1.25" stroke-linecap="round" stroke-linejoin="round"/>
</svg>
