<svg width="22" height="22" viewBox="0 0 22 22" fill="none" xmlns="http://www.w3.org/2000/svg">
<path d="M21.7791 3.18898L18.7634 0.173286C18.6169 0.0530626 18.4309 -0.00837627 18.2416 0.000919671C18.0524 0.0102156 17.8733 0.0895817 17.7393 0.22358C17.6053 0.357579 17.526 0.536629 17.5167 0.725903C17.5074 0.915177 17.5688 1.10114 17.689 1.24763L17.8304 1.37956L12.6377 5.28112L9.02832 6.00677C8.88377 6.03592 8.75006 6.1044 8.64194 6.20468L0.669192 14.1868C0.4572 14.3963 0.288892 14.6458 0.174021 14.9208C0.0591495 15.1958 0 15.4909 0 15.7889C0 16.087 0.0591495 16.382 0.174021 16.6571C0.288892 16.9321 0.4572 17.1815 0.669192 17.391L4.56132 21.2832C4.77081 21.4951 5.02029 21.6635 5.2953 21.7783C5.5703 21.8932 5.86538 21.9523 6.16341 21.9523C6.46145 21.9523 6.75652 21.8932 7.03153 21.7783C7.30654 21.6635 7.55601 21.4951 7.7655 21.2832L15.7477 13.3104C15.8479 13.2023 15.9164 13.0686 15.9456 12.924L16.6712 9.31461L20.5728 4.12196L20.7047 4.26332C20.8488 4.40266 21.0414 4.48055 21.2419 4.48055C21.4423 4.48055 21.635 4.40266 21.7791 4.26332C21.9206 4.12038 22.0001 3.92733 22.0001 3.72615C22.0001 3.52497 21.9206 3.33192 21.7791 3.18898ZM8.42518 18.4936L3.45871 13.5272L7.67126 9.31461L12.6377 14.2811L8.42518 18.4936ZM5.62624 20.2182L1.73411 16.3261C1.66287 16.256 1.6063 16.1723 1.56769 16.0801C1.52908 15.9879 1.50919 15.8889 1.50919 15.7889C1.50919 15.689 1.52908 15.59 1.56769 15.4978C1.6063 15.4055 1.66287 15.3219 1.73411 15.2518L2.39379 14.5921L7.36027 19.5586L6.70058 20.2182C6.55764 20.3598 6.36459 20.4392 6.16341 20.4392C5.96223 20.4392 5.76918 20.3598 5.62624 20.2182ZM15.3613 8.55126C15.2964 8.64129 15.2514 8.74409 15.2293 8.85283L14.5131 12.4057L13.7026 13.2162L8.73618 8.2497L9.54664 7.43923L13.0995 6.723C13.2083 6.70091 13.3111 6.65593 13.4011 6.59106L18.9047 2.46333L19.489 3.04762L15.3613 8.55126Z" fill="#3E4B65"/>
</svg>
